# Blender v2.93.5 OBJ File: ''
# www.blender.org
mtllib advtrains_dtrack_vst2_45.mtl
o dtrack_vst2_45_Cube.035
v 0.111416 0.442721 0.354093
v 0.354093 0.321400 0.111416
v 0.354093 0.157340 0.111416
v 0.111416 0.278660 0.354093
v 0.448220 0.321400 0.205543
v 0.448220 0.157340 0.205543
v 0.205542 0.442721 0.448220
v 0.205542 0.278660 0.448220
v -0.147213 0.559814 0.852567
v 0.852568 0.060000 -0.147212
v 0.852568 0.110000 -0.147212
v -0.147213 0.609814 0.852567
v -0.208358 0.539814 0.791422
v -0.164683 0.559814 0.835097
v 0.835098 0.060000 -0.164682
v 0.791423 0.040000 -0.208357
v 0.896243 0.040000 -0.103536
v -0.103538 0.539814 0.896242
v -0.164683 0.609814 0.835097
v 0.835098 0.110000 -0.164682
v 0.874406 0.115000 -0.125374
v -0.125375 0.614814 0.874405
v -0.186520 0.614814 0.813259
v 0.813260 0.115000 -0.186519
v 0.874406 0.140000 -0.125374
v -0.125375 0.639814 0.874405
v -0.186520 0.639814 0.813259
v 0.813260 0.140000 -0.186519
v -0.508186 3.379001 0.491594
v -0.508186 3.400629 0.491593
v 0.491594 2.900814 -0.508186
v 0.491594 2.879186 -0.508186
v 0.508186 2.879186 -0.491594
v 0.508186 2.900814 -0.491594
v -0.491594 3.400629 0.508186
v -0.491594 3.379001 0.508186
v 0.147212 0.060000 -0.852567
v -0.852568 0.559814 0.147212
v -0.852568 0.609814 0.147212
v 0.147212 0.110000 -0.852567
v 0.208358 0.040000 -0.791421
v 0.164682 0.060000 -0.835097
v -0.835099 0.559815 0.164682
v -0.791423 0.539814 0.208357
v -0.896244 0.539814 0.103537
v 0.103537 0.040000 -0.896242
v 0.164682 0.110000 -0.835097
v -0.835099 0.609815 0.164682
v -0.874406 0.614814 0.125374
v 0.125375 0.115000 -0.874404
v 0.186520 0.115000 -0.813259
v -0.813261 0.614815 0.186520
v -0.874406 0.639814 0.125374
v 0.125375 0.140000 -0.874404
v 0.186520 0.140000 -0.813259
v -0.813261 0.639814 0.186520
v -0.354093 0.442721 -0.111416
v -0.354093 0.278660 -0.111416
v -0.111416 0.157340 -0.354093
v -0.111416 0.321400 -0.354093
v -0.205543 0.157340 -0.448220
v -0.205543 0.321400 -0.448220
v -0.448220 0.442721 -0.205543
v -0.448220 0.278660 -0.205543
v 1.029558 -0.000000 0.029561
v 0.029561 0.500000 1.029558
v 0.029561 -0.000000 1.029558
v -1.029558 0.500000 -0.029561
v -0.029561 0.000000 -1.029558
v -1.029558 0.000000 -0.029561
v -0.499999 0.500000 0.499999
v -1.559120 -0.000000 0.500000
v -1.029558 -0.500000 -0.029561
v -1.559120 -0.500000 0.500000
v -1.559119 0.500000 0.500000
v -0.500000 0.500000 1.559119
v -0.500003 -0.000000 0.500000
v -0.500003 -0.500000 0.500000
v -0.500000 -0.000000 1.559119
v -0.500000 -0.500000 1.559119
v 0.029561 -0.500000 1.029558
v -0.029561 -0.500000 -1.029558
v 1.029558 -0.500000 0.029561
vt 0.742700 0.116900
vt 0.742700 0.331700
vt 0.640000 0.331700
vt 0.640000 0.116900
vt 0.826000 0.331700
vt 0.826000 0.434300
vt 0.742700 0.434300
vt 0.826000 0.116900
vt 0.742700 0.014200
vt 0.826000 0.014200
vt 0.569100 0.297100
vt 0.569100 0.922900
vt 0.537800 0.922900
vt 0.537800 0.297100
vt 0.341300 0.297100
vt 0.381900 0.297100
vt 0.381900 0.922900
vt 0.341300 0.922900
vt 0.429100 0.985500
vt 0.467800 0.973000
vt 0.483300 0.973000
vt 0.521900 0.985500
vt 0.609700 0.922900
vt 0.609700 0.297100
vt 0.467800 0.247000
vt 0.429100 0.234500
vt 0.521900 0.234500
vt 0.483300 0.247000
vt 0.483300 0.278300
vt 0.467800 0.278300
vt 0.413200 0.297100
vt 0.413200 0.922900
vt 0.467800 0.941700
vt 0.483300 0.941700
vt 0.518200 0.922900
vt 0.518200 0.297100
vt 0.432800 0.297100
vt 0.432800 0.922900
vt 0.502600 0.922900
vt 0.502600 0.297100
vt 0.448500 0.297100
vt 0.448500 0.922900
vt 0.502600 0.281400
vt 0.448500 0.281400
vt 0.448500 0.938600
vt 0.502600 0.938600
vt 0.655400 0.362700
vt 0.669000 0.362700
vt 0.669000 0.988500
vt 0.655400 0.988500
vt 0.697200 0.988500
vt 0.683700 0.988500
vt 0.683700 0.362700
vt 0.697200 0.362700
vt 0.711900 0.362700
vt 0.711900 0.988500
vt 0.569100 0.297100
vt 0.569100 0.922900
vt 0.537800 0.922900
vt 0.537800 0.297100
vt 0.341300 0.297100
vt 0.381900 0.297100
vt 0.381900 0.922900
vt 0.341300 0.922900
vt 0.429100 0.985500
vt 0.467800 0.973000
vt 0.483300 0.973000
vt 0.521900 0.985500
vt 0.609700 0.922900
vt 0.609700 0.297100
vt 0.467800 0.247000
vt 0.429100 0.234500
vt 0.521900 0.234500
vt 0.483300 0.247000
vt 0.483300 0.278300
vt 0.467800 0.278300
vt 0.413200 0.297100
vt 0.413200 0.922900
vt 0.467800 0.941700
vt 0.483300 0.941700
vt 0.518200 0.922900
vt 0.518200 0.297100
vt 0.432800 0.297100
vt 0.432800 0.922900
vt 0.502600 0.922900
vt 0.502600 0.297100
vt 0.448500 0.297100
vt 0.448500 0.922900
vt 0.502600 0.281400
vt 0.448500 0.281400
vt 0.448500 0.938600
vt 0.502600 0.938600
vt 0.742700 0.116900
vt 0.640000 0.116900
vt 0.640000 0.331700
vt 0.742700 0.331700
vt 0.742700 0.434300
vt 0.826000 0.434300
vt 0.826000 0.331700
vt 0.826000 0.116900
vt 0.826000 0.014200
vt 0.742700 0.014200
vt -0.293800 0.509500
vt 0.654000 0.035800
vt 0.654000 0.509600
vt 0.654900 0.985200
vt -0.292800 0.511400
vt 0.654900 0.511400
vt 0.104700 0.995300
vt 0.104700 0.493400
vt 0.104700 -0.008500
vt 1.164300 -0.008500
vt 1.164300 0.995300
vt 1.156800 0.511400
vt 0.654900 0.037700
vt 1.156800 0.037700
vt -0.397200 0.995300
vt -0.397200 -0.008500
vt 1.143100 0.500900
vt 0.433400 0.500900
vt 0.433400 0.027200
vt 1.143100 0.027200
vt 1.143100 0.974700
vt 0.433400 0.974700
vt 0.763300 0.965400
vt 0.053600 0.965400
vt 0.053600 0.491600
vt 0.763300 0.491600
vt 1.155900 0.509600
vt 1.155900 0.983300
vt 0.654000 0.983300
vt 0.105300 -0.017600
vt 0.105200 0.484300
vt -0.396600 -0.017600
vt 1.053000 -0.017600
vt 1.053000 0.986100
vt 0.105300 0.986100
vt -0.396600 0.986100
vt 0.053600 0.017900
vt 0.763300 0.017900
vt -0.292800 0.037700
vt -0.293800 0.983300
vt 0.045500 0.127300
vt 1.049200 0.127300
vt 1.049200 0.601100
vt 0.045500 0.601100
vt 1.156800 0.985200
vt 1.155900 0.035800
vn -0.7071 0.0000 -0.7071
vn 0.7071 0.0000 -0.7071
vn -0.7071 -0.0000 0.7071
vn 0.2357 0.9428 -0.2357
vn 0.7071 0.0000 0.7071
vn 0.0189 0.9017 -0.4319
vn 0.4319 0.9017 -0.0189
vn -0.1263 -0.9320 0.3397
vn -0.3397 -0.9320 0.1263
vn -0.2357 -0.9428 0.2357
vn 0.0000 1.0000 0.0000
vn 0.0000 0.0000 1.0000
vn -1.0000 0.0000 0.0000
vn -0.0000 -1.0000 0.0000
usemtl Default_OBJ.004
s 1
f 1/1/1 2/2/1 3/3/1 4/4/1
f 2/2/2 5/5/2 6/6/2 3/7/2
f 7/8/3 1/1/3 4/9/3 8/10/3
f 7/8/4 5/5/4 2/2/4 1/1/4
f 9/11/5 10/12/5 11/13/5 12/14/5
f 13/15/6 14/16/6 15/17/6 16/18/6
f 16/19/2 15/20/2 10/21/2 17/22/2
f 17/23/7 10/12/7 9/11/7 18/24/7
f 14/25/3 13/26/3 18/27/3 9/28/3
f 12/29/3 19/30/3 14/25/3 9/28/3
f 14/16/1 19/31/1 20/32/1 15/17/1
f 10/21/2 15/20/2 20/33/2 11/34/2
f 12/14/8 11/13/8 21/35/8 22/36/8
f 20/32/9 19/31/9 23/37/9 24/38/9
f 22/36/5 21/35/5 25/39/5 26/40/5
f 24/38/1 23/37/1 27/41/1 28/42/1
f 25/39/4 28/42/4 27/41/4 26/40/4
f 19/30/3 12/29/3 22/43/3 26/40/3 27/41/3 23/44/3
f 20/33/2 24/45/2 28/42/2 25/39/2 21/46/2 11/34/2
f 29/47/1 30/48/1 31/49/1 32/50/1
f 33/51/5 34/52/5 35/53/5 36/54/5
f 29/55/10 32/56/10 33/51/10 36/54/10
f 30/48/4 35/53/4 34/52/4 31/49/4
f 37/57/1 38/58/1 39/59/1 40/60/1
f 41/61/7 42/62/7 43/63/7 44/64/7
f 44/65/3 43/66/3 38/67/3 45/68/3
f 45/69/6 38/58/6 37/57/6 46/70/6
f 42/71/2 41/72/2 46/73/2 37/74/2
f 40/75/2 47/76/2 42/71/2 37/74/2
f 42/62/5 47/77/5 48/78/5 43/63/5
f 38/67/3 43/66/3 48/79/3 39/80/3
f 40/60/9 39/59/9 49/81/9 50/82/9
f 48/78/8 47/77/8 51/83/8 52/84/8
f 50/82/1 49/81/1 53/85/1 54/86/1
f 52/84/5 51/83/5 55/87/5 56/88/5
f 53/85/4 56/88/4 55/87/4 54/86/4
f 47/76/2 40/75/2 50/89/2 54/86/2 55/87/2 51/90/2
f 48/79/3 52/91/3 56/88/3 53/85/3 49/92/3 39/80/3
f 57/93/5 58/94/5 59/95/5 60/96/5
f 60/96/2 59/97/2 61/98/2 62/99/2
f 63/100/3 64/101/3 58/102/3 57/93/3
f 63/100/4 57/93/4 60/96/4 62/99/4
f 65/103/5 66/104/5 67/105/5
f 68/106/1 69/107/1 70/108/1
f 68/109/4 71/110/4 66/111/4 65/112/4 69/113/4
f 72/114/1 70/108/1 73/115/1 74/116/1
f 68/109/11 75/117/11 71/110/11
f 66/111/11 71/110/11 76/118/11
f 77/119/12 72/120/12 74/121/12 78/122/12
f 71/123/12 75/124/12 72/120/12 77/119/12
f 76/125/13 71/126/13 77/127/13 79/128/13
f 67/105/5 79/129/5 80/130/5 81/131/5
f 73/132/14 78/133/14 74/134/14
f 82/135/14 83/136/14 81/137/14 78/133/14 73/132/14
f 80/138/14 78/133/14 81/137/14
f 79/128/13 77/127/13 78/139/13 80/140/13
f 70/108/1 69/107/1 82/141/1 73/115/1
f 65/103/5 67/105/5 81/131/5 83/142/5
f 69/143/2 65/144/2 83/145/2 82/146/2
f 68/106/1 70/108/1 72/114/1 75/147/1
f 67/105/5 66/104/5 76/148/5 79/129/5
