# Blender v2.93.5 OBJ File: ''
# www.blender.org
mtllib advtrains_dtrack_vst31.mtl
o dtrack_vst31_Cube.000
v 0.329165 -0.143980 0.171599
v 0.329165 -0.258379 -0.171599
v 0.329165 -0.422440 -0.171599
v 0.329165 -0.308041 0.171599
v 0.462280 -0.258379 -0.171599
v 0.462280 -0.422440 -0.171599
v 0.462280 -0.143980 0.171599
v 0.462280 -0.308041 0.171599
v 0.498762 -0.106667 0.500000
v 0.498762 -0.440000 -0.500000
v 0.498762 -0.390000 -0.500000
v 0.498762 -0.056667 0.500000
v 0.412289 -0.126667 0.500000
v 0.474055 -0.106667 0.500000
v 0.474055 -0.440000 -0.500000
v 0.412289 -0.460000 -0.500000
v 0.560528 -0.460000 -0.500000
v 0.560528 -0.126667 0.500000
v 0.474055 -0.056667 0.500000
v 0.474055 -0.390000 -0.500000
v 0.529645 -0.385000 -0.500000
v 0.529645 -0.051667 0.500000
v 0.443172 -0.051667 0.500000
v 0.443172 -0.385000 -0.500000
v 0.529645 -0.360000 -0.500000
v 0.529645 -0.026667 0.500000
v 0.443172 -0.026667 0.500000
v 0.443172 -0.360000 -0.500000
v -0.011733 2.712519 0.500000
v -0.011733 2.734147 0.500000
v -0.011732 2.400814 -0.500000
v -0.011732 2.379186 -0.500001
v 0.011732 2.379186 -0.500000
v 0.011732 2.400814 -0.500000
v 0.011732 2.734148 0.500000
v 0.011732 2.712519 0.500000
v -0.498762 -0.440000 -0.500000
v -0.498762 -0.106667 0.500000
v -0.498762 -0.056667 0.500000
v -0.498762 -0.390000 -0.500000
v -0.412289 -0.460000 -0.500000
v -0.474055 -0.440000 -0.500000
v -0.474055 -0.106666 0.500000
v -0.412289 -0.126667 0.500000
v -0.560528 -0.126667 0.500000
v -0.560528 -0.460000 -0.500000
v -0.474055 -0.390000 -0.500000
v -0.474055 -0.056666 0.500000
v -0.529645 -0.051667 0.500000
v -0.529645 -0.385000 -0.500000
v -0.443172 -0.385000 -0.500000
v -0.443172 -0.051666 0.500000
v -0.529645 -0.026667 0.500000
v -0.529645 -0.360000 -0.500000
v -0.443172 -0.360000 -0.500000
v -0.443172 -0.026666 0.500000
v -0.329165 -0.143980 0.171599
v -0.329165 -0.308041 0.171599
v -0.329165 -0.422440 -0.171599
v -0.329165 -0.258379 -0.171599
v -0.462280 -0.422440 -0.171599
v -0.462280 -0.258379 -0.171599
v -0.462280 -0.143980 0.171599
v -0.462280 -0.308041 0.171599
v 0.753760 -0.166667 0.500000
v -0.753760 -0.166667 0.500000
v -0.753760 -0.500000 0.500000
v 0.753760 -0.500000 0.500000
v 0.753760 -0.500000 -0.500000
v -0.753760 -0.500000 -0.500000
vt 0.742700 0.116900
vt 0.742700 0.331700
vt 0.640000 0.331700
vt 0.640000 0.116900
vt 0.826000 0.331700
vt 0.826000 0.434300
vt 0.742700 0.434300
vt 0.826000 0.116900
vt 0.742700 0.014200
vt 0.826000 0.014200
vt 0.569100 0.297100
vt 0.569100 0.922900
vt 0.537800 0.922900
vt 0.537800 0.297100
vt 0.341300 0.297100
vt 0.381900 0.297100
vt 0.381900 0.922900
vt 0.341300 0.922900
vt 0.429100 0.985500
vt 0.467800 0.973000
vt 0.483300 0.973000
vt 0.521900 0.985500
vt 0.609700 0.922900
vt 0.609700 0.297100
vt 0.467800 0.247000
vt 0.429100 0.234500
vt 0.521900 0.234500
vt 0.483300 0.247000
vt 0.483300 0.278300
vt 0.467800 0.278300
vt 0.413200 0.297100
vt 0.413200 0.922900
vt 0.467800 0.941700
vt 0.483300 0.941700
vt 0.518200 0.922900
vt 0.518200 0.297100
vt 0.432800 0.297100
vt 0.432800 0.922900
vt 0.502600 0.922900
vt 0.502600 0.297100
vt 0.448500 0.297100
vt 0.448500 0.922900
vt 0.502600 0.281400
vt 0.448500 0.281400
vt 0.448500 0.938600
vt 0.502600 0.938600
vt 0.655400 0.362700
vt 0.669000 0.362700
vt 0.669000 0.988500
vt 0.655400 0.988500
vt 0.697200 0.988500
vt 0.683700 0.988500
vt 0.683700 0.362700
vt 0.697200 0.362700
vt 0.711900 0.362700
vt 0.711900 0.988500
vt 0.569100 0.297100
vt 0.569100 0.922900
vt 0.537800 0.922900
vt 0.537800 0.297100
vt 0.341300 0.297100
vt 0.381900 0.297100
vt 0.381900 0.922900
vt 0.341300 0.922900
vt 0.429100 0.985500
vt 0.467800 0.973000
vt 0.483300 0.973000
vt 0.521900 0.985500
vt 0.609700 0.922900
vt 0.609700 0.297100
vt 0.467800 0.247000
vt 0.429100 0.234500
vt 0.521900 0.234500
vt 0.483300 0.247000
vt 0.483300 0.278300
vt 0.467800 0.278300
vt 0.413200 0.297100
vt 0.413200 0.922900
vt 0.467800 0.941700
vt 0.483300 0.941700
vt 0.518200 0.922900
vt 0.518200 0.297100
vt 0.432800 0.297100
vt 0.432800 0.922900
vt 0.502600 0.922900
vt 0.502600 0.297100
vt 0.448500 0.297100
vt 0.448500 0.922900
vt 0.502600 0.281400
vt 0.448500 0.281400
vt 0.448500 0.938600
vt 0.502600 0.938600
vt 0.742700 0.116900
vt 0.640000 0.116900
vt 0.640000 0.331700
vt 0.742700 0.331700
vt 0.742700 0.434300
vt 0.826000 0.434300
vt 0.826000 0.331700
vt 0.826000 0.116900
vt 0.826000 0.014200
vt 0.742700 0.014200
vt 1.194900 -0.047000
vt -0.315200 -0.047000
vt -0.315200 -0.380900
vt 1.194900 -0.380900
vt -0.312000 1.001500
vt -0.312000 -0.000200
vt 1.198100 -0.000200
vt 1.198100 1.001500
vt 1.194900 1.008900
vt 1.511700 0.058600
vt -0.315200 1.008900
vt -0.632000 0.058600
vn -1.0000 -0.0000 0.0000
vn 0.0000 0.0000 -1.0000
vn 0.0000 -0.0000 1.0000
vn 0.0000 0.9487 -0.3162
vn 1.0000 0.0000 0.0000
vn -0.2936 0.9069 -0.3023
vn 0.2936 0.9069 -0.3023
vn 0.1518 -0.9377 0.3126
vn -0.1518 -0.9377 0.3126
vn -0.0000 -0.9487 0.3162
vn 0.2937 0.9069 -0.3023
vn 0.0000 -1.0000 -0.0000
usemtl Default_OBJ.005
s 1
f 1/1/1 2/2/1 3/3/1 4/4/1
f 2/2/2 5/5/2 6/6/2 3/7/2
f 7/8/3 1/1/3 4/9/3 8/10/3
f 7/8/4 5/5/4 2/2/4 1/1/4
f 9/11/5 10/12/5 11/13/5 12/14/5
f 13/15/6 14/16/6 15/17/6 16/18/6
f 16/19/2 15/20/2 10/21/2 17/22/2
f 17/23/7 10/12/7 9/11/7 18/24/7
f 14/25/3 13/26/3 18/27/3 9/28/3
f 12/29/3 19/30/3 14/25/3 9/28/3
f 14/16/1 19/31/1 20/32/1 15/17/1
f 10/21/2 15/20/2 20/33/2 11/34/2
f 12/14/8 11/13/8 21/35/8 22/36/8
f 20/32/9 19/31/9 23/37/9 24/38/9
f 22/36/5 21/35/5 25/39/5 26/40/5
f 24/38/1 23/37/1 27/41/1 28/42/1
f 25/39/4 28/42/4 27/41/4 26/40/4
f 19/30/3 12/29/3 22/43/3 26/40/3 27/41/3 23/44/3
f 20/33/2 24/45/2 28/42/2 25/39/2 21/46/2 11/34/2
f 29/47/1 30/48/1 31/49/1 32/50/1
f 33/51/5 34/52/5 35/53/5 36/54/5
f 29/55/10 32/56/10 33/51/10 36/54/10
f 30/48/4 35/53/4 34/52/4 31/49/4
f 37/57/1 38/58/1 39/59/1 40/60/1
f 41/61/11 42/62/11 43/63/11 44/64/11
f 44/65/3 43/66/3 38/67/3 45/68/3
f 45/69/6 38/58/6 37/57/6 46/70/6
f 42/71/2 41/72/2 46/73/2 37/74/2
f 40/75/2 47/76/2 42/71/2 37/74/2
f 42/62/5 47/77/5 48/78/5 43/63/5
f 38/67/3 43/66/3 48/79/3 39/80/3
f 40/60/9 39/59/9 49/81/9 50/82/9
f 48/78/8 47/77/8 51/83/8 52/84/8
f 50/82/1 49/81/1 53/85/1 54/86/1
f 52/84/5 51/83/5 55/87/5 56/88/5
f 53/85/4 56/88/4 55/87/4 54/86/4
f 47/76/2 40/75/2 50/89/2 54/86/2 55/87/2 51/90/2
f 48/79/3 52/91/3 56/88/3 53/85/3 49/92/3 39/80/3
f 57/93/5 58/94/5 59/95/5 60/96/5
f 60/96/2 59/97/2 61/98/2 62/99/2
f 63/100/3 64/101/3 58/102/3 57/93/3
f 63/100/4 57/93/4 60/96/4 62/99/4
f 65/103/3 66/104/3 67/105/3 68/106/3
f 69/107/12 68/108/12 67/109/12 70/110/12
f 69/111/5 65/103/5 68/112/5
f 66/104/1 70/113/1 67/114/1
f 70/113/4 66/104/4 65/103/4 69/111/4
